<svg xmlns="http://www.w3.org/2000/svg" width="25.75" height="22.531" viewBox="0 0 25.75 22.531"><path d="M24.141,8.688H1.609A1.609,1.609,0,0,1,0,7.078V3.859A1.609,1.609,0,0,1,1.609,2.25H24.141A1.609,1.609,0,0,1,25.75,3.859V7.078A1.609,1.609,0,0,1,24.141,8.688ZM21.727,4.262a1.207,1.207,0,1,0,1.207,1.207A1.207,1.207,0,0,0,21.727,4.262Zm-3.219,0a1.207,1.207,0,1,0,1.207,1.207A1.207,1.207,0,0,0,18.508,4.262Zm5.633,12.473H1.609A1.609,1.609,0,0,1,0,15.125V11.906A1.609,1.609,0,0,1,1.609,10.3H24.141a1.609,1.609,0,0,1,1.609,1.609v3.219A1.609,1.609,0,0,1,24.141,16.734Zm-2.414-4.426a1.207,1.207,0,1,0,1.207,1.207A1.207,1.207,0,0,0,21.727,12.309Zm-3.219,0a1.207,1.207,0,1,0,1.207,1.207A1.207,1.207,0,0,0,18.508,12.309Zm5.633,12.473H1.609A1.609,1.609,0,0,1,0,23.172V19.953a1.609,1.609,0,0,1,1.609-1.609H24.141a1.609,1.609,0,0,1,1.609,1.609v3.219A1.609,1.609,0,0,1,24.141,24.781Zm-2.414-4.426a1.207,1.207,0,1,0,1.207,1.207A1.207,1.207,0,0,0,21.727,20.356Zm-3.219,0a1.207,1.207,0,1,0,1.207,1.207A1.207,1.207,0,0,0,18.508,20.356Z" transform="translate(0 -2.25)" fill="#707070" opacity="0.6"/></svg>