<svg xmlns="http://www.w3.org/2000/svg" xmlns:xlink="http://www.w3.org/1999/xlink" width="150" height="156" viewBox="0 0 150 156"><defs><clipPath id="a"><rect width="150" height="156" transform="translate(282 393.683)" fill="#fff" stroke="#707070" stroke-width="1"/></clipPath><clipPath id="b"><rect width="139" height="137" transform="translate(0 0.381)" fill="#fff" stroke="#707070" stroke-width="1"/></clipPath></defs><g transform="translate(-282 -393.683)" clip-path="url(#a)"><g transform="translate(282 382.303)" clip-path="url(#b)"><g transform="translate(0 -24.1)"><g transform="translate(0 36.825)"><g transform="translate(0 0)"><path d="M22.3,83.1v27.325H147.786V83.1Zm22.3,17.318H37.226V93.107h7.343v7.311Zm14.685,0H51.941V93.107h7.343Zm14.715,0H66.657V93.107H74Zm58.831,0H96.057V93.107H132.83Z" transform="translate(-22.3 -83.1)" fill="#3a0d51"/><g transform="translate(0 49.288)"><path d="M22.3,247.6v26.846H147.786V247.6Zm22.3,17.078H37.226v-7.311h7.343v7.311Zm14.685,0H51.941v-7.311h7.343Zm14.715,0H66.657v-7.311H74Zm58.831,0H96.057v-7.311H132.83Z" transform="translate(-22.3 -247.6)" fill="#3a0d51"/></g><g transform="translate(0 98.096)"><path d="M22.3,410.5v26.846H147.786V410.5Zm22.3,17.078H37.226v-7.311h7.343v7.311Zm14.685,0H51.941v-7.311h7.343Zm14.715,0H66.657v-7.311H74Zm58.831,0H96.057v-7.311H132.83Z" transform="translate(-22.3 -410.5)" fill="#3a0d51"/></g><g transform="translate(7.583 34.636)"><path d="M47.5,198.7H157.789v7.311H47.5Z" transform="translate(-47.5 -198.7)" fill="#3a0d51"/></g><g transform="translate(7.583 83.444)"><path d="M47.5,361.6H157.789v7.311H47.5Z" transform="translate(-47.5 -361.6)" fill="#3a0d51"/></g></g></g><text transform="translate(230.351 59)" fill="#3a0d51" stroke="#efefef" stroke-miterlimit="10" stroke-width="4" font-size="65" font-family="ArialMT, Arial"><tspan x="0" y="0">+</tspan></text></g></g><path d="M55.368,25.573H36.2V6.491A4.25,4.25,0,0,0,31.943,2.25H27.684a4.25,4.25,0,0,0-4.259,4.241V25.573H4.259A4.25,4.25,0,0,0,0,29.814v4.241A4.25,4.25,0,0,0,4.259,38.3H23.425V57.377a4.25,4.25,0,0,0,4.259,4.241h4.259A4.25,4.25,0,0,0,36.2,57.377V38.295H55.368a4.25,4.25,0,0,0,4.259-4.241v-4.24a4.25,4.25,0,0,0-4.259-4.241Z" transform="translate(372.612 488.102)" fill="#3a0d51" stroke="#f5f5f5" stroke-width="6"/></g></svg>