<svg xmlns="http://www.w3.org/2000/svg" width="156.684" height="144.649" viewBox="0 0 156.684 144.649"><g transform="translate(-1108.559 -442.351)"><path d="M105,46.58h-.722a5.221,5.221,0,0,0-.706-.969L72.915,12.77a10.053,10.053,0,0,0,.218-2.037c0-5.133-3.781-9.294-8.449-9.294H55.026c-4.665,0-8.446,4.161-8.446,9.294A10.245,10.245,0,0,0,46.8,12.77L16.145,45.611a5.475,5.475,0,0,0-.706.969h-14V65.167H6.751V105a13.276,13.276,0,0,0,13.276,13.276H105A13.276,13.276,0,0,0,118.273,105V65.167h5.311V46.58H105ZM55.029,20.027h9.657l.433-.048,24.824,26.6H29.769L54.6,19.979ZM30.648,102.341a5.311,5.311,0,0,1-10.621,0V70.477a5.311,5.311,0,0,1,10.621,0Zm23.9,0a5.311,5.311,0,0,1-10.621,0V70.477a5.311,5.311,0,0,1,10.621,0Zm26.553,0a5.311,5.311,0,0,1-10.621,0V70.477a5.311,5.311,0,0,1,10.621,0Zm23.9,0a5.311,5.311,0,0,1-10.621,0V70.477a5.311,5.311,0,0,1,10.621,0Z" transform="translate(1107.619 441.411)" fill="#3a0d51" stroke="#f5f5f5" stroke-width="1"/><path d="M48.75,0,40.625,8.125l16.25,16.25L65,16.25ZM32.5,16.25,0,48.75V65H16.25l32.5-32.5Z" transform="translate(1196 519)" fill="#3a0d51" stroke="#f5f5f5" stroke-width="6"/></g></svg>