<svg xmlns="http://www.w3.org/2000/svg" width="24.966" height="23.162" viewBox="0 0 24.966 23.162"><g transform="translate(0 -18.5)"><g transform="translate(0 18.5)"><path d="M23.137,18.5H1.829A1.831,1.831,0,0,0,0,20.329V36.42a1.831,1.831,0,0,0,1.829,1.829h7.8l-.44,1.541A1.69,1.69,0,0,1,7.68,40.93H4.925a.366.366,0,1,0,0,.731H20.041a.366.366,0,1,0,0-.731H17.286a1.69,1.69,0,0,1-1.513-1.141l-.44-1.541h7.8a1.831,1.831,0,0,0,1.829-1.829V20.329A1.831,1.831,0,0,0,23.137,18.5Zm-21.309.731H23.137a1.1,1.1,0,0,1,1.1,1.1v12.8H.731v-12.8A1.1,1.1,0,0,1,1.829,19.231ZM15.07,39.99a2.231,2.231,0,0,0,.561.94h-6.3a2.231,2.231,0,0,0,.561-.94l.5-1.742h4.178Zm8.068-2.473H1.829a1.1,1.1,0,0,1-1.1-1.1V33.86h23.5v2.56A1.1,1.1,0,0,1,23.137,37.517Z" transform="translate(0 -18.5)" fill="#707070"/><path d="M30.366,60.934H51.675a.366.366,0,0,0,.366-.366v-11.7a.366.366,0,0,0-.366-.366H30.366a.366.366,0,0,0-.366.366v5.12a.366.366,0,0,0,.731,0V49.231H51.309V60.2H30.731V55.449a.366.366,0,1,0-.731,0v5.12A.366.366,0,0,0,30.366,60.934Z" transform="translate(-28.537 -47.037)" fill="#707070"/><path d="M234.6,348.5a1.1,1.1,0,1,0,1.1,1.1A1.1,1.1,0,0,0,234.6,348.5Zm0,1.463a.366.366,0,1,1,.366-.366A.366.366,0,0,1,234.6,349.963Z" transform="translate(-222.114 -332.409)" fill="#707070"/></g></g></svg>