<svg xmlns="http://www.w3.org/2000/svg" width="158.441" height="144.66" viewBox="0 0 158.441 144.66"><g transform="translate(-733.559 -442.351)"><path d="M105,46.58h-.722a5.221,5.221,0,0,0-.706-.969L72.915,12.77a10.053,10.053,0,0,0,.218-2.037c0-5.133-3.781-9.294-8.449-9.294H55.026c-4.665,0-8.446,4.161-8.446,9.294A10.245,10.245,0,0,0,46.8,12.77L16.145,45.611a5.475,5.475,0,0,0-.706.969h-14V65.167H6.751V105a13.276,13.276,0,0,0,13.276,13.276H105A13.276,13.276,0,0,0,118.273,105V65.167h5.311V46.58H105ZM55.029,20.027h9.657l.433-.048,24.824,26.6H29.769L54.6,19.979ZM30.648,102.341a5.311,5.311,0,0,1-10.621,0V70.477a5.311,5.311,0,0,1,10.621,0Zm23.9,0a5.311,5.311,0,0,1-10.621,0V70.477a5.311,5.311,0,0,1,10.621,0Zm26.553,0a5.311,5.311,0,0,1-10.621,0V70.477a5.311,5.311,0,0,1,10.621,0Zm23.9,0a5.311,5.311,0,0,1-10.621,0V70.477a5.311,5.311,0,0,1,10.621,0Z" transform="translate(732.619 441.411)" fill="#3a0d51" stroke="#f5f5f5" stroke-width="1"/><path d="M64.116,56.206,51.458,43.548a3.045,3.045,0,0,0-2.158-.889H47.23a26.4,26.4,0,1,0-4.571,4.571V49.3a3.045,3.045,0,0,0,.889,2.158L56.206,64.116a3.035,3.035,0,0,0,4.3,0L64.1,60.523a3.061,3.061,0,0,0,.013-4.317ZM26.408,42.659A16.251,16.251,0,1,1,42.659,26.408,16.242,16.242,0,0,1,26.408,42.659Z" transform="translate(824 519)" fill="#3a0d51" stroke="#f5f5f5" stroke-width="6"/></g></svg>