<svg xmlns="http://www.w3.org/2000/svg" width="147.276" height="145.009" viewBox="0 0 147.276 145.009"><g transform="translate(-358.559 -442.351)"><path d="M105,46.58h-.722a5.221,5.221,0,0,0-.706-.969L72.915,12.77a10.053,10.053,0,0,0,.218-2.037c0-5.133-3.781-9.294-8.449-9.294H55.026c-4.665,0-8.446,4.161-8.446,9.294A10.245,10.245,0,0,0,46.8,12.77L16.145,45.611a5.475,5.475,0,0,0-.706.969h-14V65.167H6.751V105a13.276,13.276,0,0,0,13.276,13.276H105A13.276,13.276,0,0,0,118.273,105V65.167h5.311V46.58H105ZM55.029,20.027h9.657l.433-.048,24.824,26.6H29.769L54.6,19.979ZM30.648,102.341a5.311,5.311,0,0,1-10.621,0V70.477a5.311,5.311,0,0,1,10.621,0Zm23.9,0a5.311,5.311,0,0,1-10.621,0V70.477a5.311,5.311,0,0,1,10.621,0Zm26.553,0a5.311,5.311,0,0,1-10.621,0V70.477a5.311,5.311,0,0,1,10.621,0Zm23.9,0a5.311,5.311,0,0,1-10.621,0V70.477a5.311,5.311,0,0,1,10.621,0Z" transform="translate(357.619 441.411)" fill="#3a0d51" stroke="#f5f5f5" stroke-width="1"/><path d="M60.357,27.786H39.464V6.893A4.643,4.643,0,0,0,34.821,2.25H30.179a4.643,4.643,0,0,0-4.643,4.643V27.786H4.643A4.643,4.643,0,0,0,0,32.429v4.643a4.643,4.643,0,0,0,4.643,4.643H25.536V62.607a4.643,4.643,0,0,0,4.643,4.643h4.643a4.643,4.643,0,0,0,4.643-4.643V41.714H60.357A4.643,4.643,0,0,0,65,37.071V32.429A4.643,4.643,0,0,0,60.357,27.786Z" transform="translate(437.835 517.11)" fill="#3a0d51" stroke="#f5f5f5" stroke-width="6"/></g></svg>
