<svg xmlns="http://www.w3.org/2000/svg" width="25.728" height="19.296" viewBox="0 0 25.728 19.296"><path d="M0,23.8V4.5H.9V23.8Zm1.35-.014V4.5h.459V23.782Zm1.364,0V4.5h.445V23.782Zm2.254,0V4.5h.445V23.782Zm1.809,0V4.5h.89V23.782Zm2.254,0V4.5h.445V23.782Zm.9,0V4.5h.445V23.782Zm.9,0V4.5h.445V23.782Zm1.795,0V4.5h.9V23.782Zm2.254,0V4.5h.9V23.782Zm1.809,0V4.5h.9V23.782Zm1.809,0V4.5h.9V23.782Zm1.35,0V4.5h.9V23.782Zm2.268,0V4.5h1.35V23.782Zm1.795,0V4.5h.459V23.782Zm.9.014V4.5h.9V23.8Z" transform="translate(0 -4.5)" fill="#707070" opacity="0.6"/></svg>