<svg xmlns="http://www.w3.org/2000/svg" xmlns:xlink="http://www.w3.org/1999/xlink" width="151.94" height="141.15" viewBox="0 0 151.94 141.15"><defs><clipPath id="a"><rect width="151.94" height="141.15" transform="translate(1468 443)" fill="#fff" stroke="#707070" stroke-width="1"/></clipPath></defs><g transform="translate(-1468 -443)" clip-path="url(#a)"><path d="M94.194,41.871h-.647A4.676,4.676,0,0,0,92.914,41L65.459,11.588a9,9,0,0,0,.2-1.824c0-4.6-3.387-8.324-7.568-8.324h-8.65c-4.179,0-7.565,3.727-7.565,8.324a9.177,9.177,0,0,0,.2,1.824L14.611,41a4.9,4.9,0,0,0-.633.868H1.44V58.519H6.2V94.194a11.892,11.892,0,0,0,11.892,11.892H94.194a11.892,11.892,0,0,0,11.892-11.892V58.519h4.757V41.871H94.194ZM49.439,18.088h8.65l.388-.043L80.711,41.871h-53.9L49.051,18.045ZM27.6,91.816a4.757,4.757,0,0,1-9.513,0V63.276a4.757,4.757,0,1,1,9.513,0Zm21.4,0a4.757,4.757,0,0,1-9.513,0V63.276a4.757,4.757,0,1,1,9.513,0Zm23.783,0a4.757,4.757,0,0,1-9.513,0V63.276a4.757,4.757,0,1,1,9.513,0Zm21.4,0a4.757,4.757,0,0,1-9.513,0V63.276a4.757,4.757,0,1,1,9.513,0Z" transform="translate(1481.438 441.416)" fill="#3a0d51" stroke="#f5f5f5" stroke-width="1"/><path d="M56.581,24.32,36.8,23.9,36.382,4.121A4.629,4.629,0,0,0,31.893-.368L27.5-.461a4.176,4.176,0,0,0-4.3,4.3l.421,19.778L3.84,23.2a4.176,4.176,0,0,0-4.3,4.3l.094,4.4a4.629,4.629,0,0,0,4.489,4.489L23.9,36.8l.421,19.778a4.629,4.629,0,0,0,4.489,4.489l4.4.094a4.176,4.176,0,0,0,4.3-4.3l-.421-19.778,19.778.421a4.176,4.176,0,0,0,4.3-4.3l-.094-4.4A4.629,4.629,0,0,0,56.581,24.32Z" transform="translate(1594.309 513.056) rotate(45)" fill="#3a0d51" stroke="#f5f5f5" stroke-width="6"/></g></svg>