<svg xmlns="http://www.w3.org/2000/svg" xmlns:xlink="http://www.w3.org/1999/xlink" width="350.124" height="158.239" viewBox="0 0 350.124 158.239">
  <defs>
    <clipPath id="clip-path">
      <path id="Caminho_1" data-name="Caminho 1" d="M169.751,161.176a3.1,3.1,0,0,0,.473,4.376l38.2,30.926a3.053,3.053,0,0,0,1.951.71,3.242,3.242,0,0,0,2.424-1.124,3.1,3.1,0,0,0-.473-4.376l-38.2-30.926a3.053,3.053,0,0,0-1.951-.71,3.133,3.133,0,0,0-2.424,1.123m136.182-13.6v27.26a16.735,16.735,0,1,1-33.469,0v-27.26a3.134,3.134,0,1,0-6.268,0v27.26a23,23,0,0,0,46.005,0v-27.26a3.155,3.155,0,0,0-3.134-3.134,3.117,3.117,0,0,0-3.134,3.134m-136.182-1.951a3.1,3.1,0,0,0,.473,4.376l38.2,30.926a3.053,3.053,0,0,0,1.951.71,3.131,3.131,0,0,0,1.951-5.559l-38.2-30.926a3.053,3.053,0,0,0-1.951-.71,3.2,3.2,0,0,0-2.424,1.183m-37.135,1.833v28.325a21.518,21.518,0,0,0,35.48,16.38v2.484A15.293,15.293,0,0,1,152.839,209.9a3.134,3.134,0,1,0,0,6.268,21.565,21.565,0,0,0,21.524-21.524V182.464a3.127,3.127,0,0,0-6.091-1.005,14.065,14.065,0,0,1-.769,1.656,15.117,15.117,0,0,1-13.364,7.924,15.293,15.293,0,0,1-15.256-15.256V147.457a3.134,3.134,0,1,0-6.268,0M26.768,175.841V164.369a15.256,15.256,0,1,1,30.512,0v11.472a15.256,15.256,0,1,1-30.512,0M20.5,164.369v48.666a3.134,3.134,0,1,0,6.268,0V190.979a21.534,21.534,0,0,0,36.78-15.2V164.31a21.524,21.524,0,1,0-43.049.059M82,175.545V164.369a15.256,15.256,0,1,1,30.512,0v11.176a15.256,15.256,0,1,1-30.512,0m-6.209-11.176v11.176a21.534,21.534,0,0,0,36.78,15.2v2.484a3.134,3.134,0,1,0,6.268,0V164.369a21.524,21.524,0,1,0-43.049,0M207.95,127.293v35.953a1.006,1.006,0,0,0,.059.414c0,.355-.059.769-.059,1.124a3.134,3.134,0,0,0,6.268,0c0-8.515,7.51-15.493,16.735-15.493a16.757,16.757,0,0,1,16.735,16.734v27.319a3.134,3.134,0,1,0,6.268,0V166.025a23.028,23.028,0,0,0-23-23,23.685,23.685,0,0,0-16.735,6.859V127.293a3.134,3.134,0,1,0-6.268,0m122.937,47.72v-8.988a16.735,16.735,0,0,1,33.469,0v8.988a16.735,16.735,0,0,1-33.469,0m-6.268-47.72v47.72a23,23,0,0,0,46.005,0v-8.988a23.007,23.007,0,0,0-39.737-15.788v-23a3.155,3.155,0,0,0-3.134-3.134,3.246,3.246,0,0,0-3.134,3.193" transform="translate(-20.5 -124.1)"/>
    </clipPath>
    <linearGradient id="linear-gradient" x1="-4.561" y1="-1.832" x2="-4.559" y2="-1.832" gradientUnits="objectBoundingBox">
      <stop offset="0" stop-color="#ffb900"/>
      <stop offset="0.315" stop-color="#ffb900"/>
      <stop offset="0.646" stop-color="#ff5a1e"/>
      <stop offset="0.734" stop-color="#ff4026"/>
      <stop offset="1" stop-color="#ff4026"/>
    </linearGradient>
  </defs>
  <g id="Grupo7" transform="translate(-20.5 -12.2)">
    <g id="Grupo_4" data-name="Grupo 4" transform="translate(20.5 78.369)">
      <g id="Grupo_3" data-name="Grupo 3" transform="translate(0)">
        <g id="Grupo_2" data-name="Grupo 2">
          <g id="Grupo_1" data-name="Grupo 1" clip-path="url(#clip-path)">
            <rect id="Retângulo_1" data-name="Retângulo 1" width="350.065" height="91.951" transform="translate(0 0.059)" fill="url(#linear-gradient)"/>
          </g>
        </g>
      </g>
    </g>
    <path id="Caminho_2" data-name="Caminho 2" d="M160.711,51.8V76.81a2.9,2.9,0,1,1-5.795,0V51.8a14.961,14.961,0,1,0-29.921,0V76.81a2.9,2.9,0,1,1-5.795,0V51.8a20.756,20.756,0,0,1,41.511,0" transform="translate(-40.336 -7.724)" fill="#FFFFFF"/>
    <path id="Caminho_3" data-name="Caminho 3" d="M94.895,39.6V79.1a2.9,2.9,0,1,1-5.795,0V39.6A3.069,3.069,0,0,1,92,36.7a2.982,2.982,0,0,1,2.9,2.9" transform="translate(-28.035 -10.013)" fill="#FFFFFF"/>
    <path id="Caminho_4" data-name="Caminho 4" d="M95.2,15.748a3.548,3.548,0,1,1-7.1,0,3.548,3.548,0,1,1,7.1,0" transform="translate(-27.626)" fill="#FFFFFF"/>
    <path id="Caminho_5" data-name="Caminho 5" d="M245.307,74.3c.237.237,2.07,2.6-.059,4.435a2.991,2.991,0,0,1-1.774.828,3.386,3.386,0,0,1-2.365-1.537l-.059-.059-.059-.059L228.513,62.122l-1.892-2.365-1.892,2.365c-2.07,2.543-7.746,9.639-10.821,13.423-1.242,1.537-2.01,2.543-2.129,2.6l-.059.059h0a3.863,3.863,0,0,1-2.543,1.419,2.42,2.42,0,0,1-1.6-.71,2.87,2.87,0,0,1-1.183-1.951,3.9,3.9,0,0,1,1.005-2.484l.059-.118.059-.118c.237-.3,11.708-14.547,14.192-17.681l1.183-1.478-1.183-1.537-13.66-17.267h0c-.237-.237-2.07-2.6.059-4.435a2.991,2.991,0,0,1,1.774-.828,3.584,3.584,0,0,1,2.365,1.478l.059.059.059.059,12.3,15.552,1.892,2.365,1.892-2.365c.591-.769,1.774-2.188,1.774-2.247l10.7-13.541h0a3.992,3.992,0,0,1,2.543-1.478,2.79,2.79,0,0,1,1.6.65,2.546,2.546,0,0,1,1.183,1.951,3.9,3.9,0,0,1-1.005,2.484l-.059.059-.059.059L231.293,53.548l-1.183,1.478,1.183,1.478,14.014,17.8Z" transform="translate(-75.97 -7.642)" fill="#FFFFFF"/>
    <path id="Caminho_6" data-name="Caminho 6" d="M53.473,68.676a2.839,2.839,0,0,1-2.838,2.838H48.388c-7.155,0-12.891-2.129-17.03-6.386-6.564-6.682-6.623-16.143-6.564-17.208V15.338A2.839,2.839,0,0,1,27.632,12.5a2.878,2.878,0,0,1,2.838,2.838v32.7c0,.473.059,8.16,4.967,13.187,3.016,3.075,7.332,4.612,12.891,4.612h2.247a2.852,2.852,0,0,1,2.9,2.838" transform="translate(-1.751 -0.123)" fill="#FFFFFF"/>
  </g>
</svg>
